# AST/ASF file generated using VICON BodyLanguage
# -----------------------------------------------
:version 1.10
:name VICON
:units
  mass 1.0
  length 0.45
  angle deg
:documentation
   .ast/.asf automatically generated from VICON data using
   VICON BodyBuilder and BodyLanguage model FoxedUp or BRILLIANT.MOD
:root
   order TX TY TZ RX RY RZ
   axis XYZ
   position 0 0 0  
   orientation 0 0 0 
:bonedata
  begin
     id 1 
     name lhipjoint
     direction 0.521452 -0.77106 0.36545 
     length 2.0933 
     axis 0 0 0  XYZ
  end
  begin
     id 2 
     name lfemur
     direction 0.34202 -0.939693 0  
     length 6.83441  
     axis 0 0 20  XYZ
    dof rx ry rz
    limits (-160.0 20.0)
           (-70.0 70.0)
           (-60.0 70.0)
  end
  begin
     id 3 
     name ltibia
     direction 0.34202 -0.939693 0   
     length 7.28749   
     axis 0 0 20   XYZ
    dof rx
    limits (-10.0 170.0)
  end
  begin
     id 4 
     name lfoot
     direction 0.100608 -0.276418 0.955757   
     length 1.52195   
     axis -90 7.62852e-016 20   XYZ
    dof rx rz
    limits (-45.0 90.0)
           (-70.0 20.0)
  end
  begin
     id 5 
     name ltoes
     direction 1.53558e-011 -4.21907e-011 1   
     length 0.770459   
     axis -90 7.62852e-016 20   XYZ
    dof rx
    limits (-90.0 20.0)
  end
  begin
     id 6 
     name rhipjoint
     direction -0.488071 -0.788702 0.373812   
     length 2.04648  
     axis 0 0 0  XYZ 
  end
  begin
     id 7 
     name rfemur
     direction -0.34202 -0.939693 0   
     length 6.92583   
     axis 0 0 -20   XYZ
    dof rx ry rz
    limits (-160.0 20.0)
           (-70.0 70.0)
           (-70.0 60.0)
  end
  begin
     id 8 
     name rtibia
     direction -0.34202 -0.939693 0   
     length 7.41043   
     axis 0 0 -20   XYZ
    dof rx
    limits (-10.0 170.0)
 end
 begin
     id 9 
     name rfoot
     direction -0.0784433 -0.215521 0.973343   
     length 1.67708  
     axis -90 -7.62852e-016 -20   XYZ
    dof rx rz
    limits (-45.0 90.0)
           (-20.0 70.0)
  end
  begin
     id 10 
     name rtoes
     direction -1.53551e-011 -4.21842e-011 1   
     length 0.849787   
     axis -90 -7.62852e-016 -20   XYZ
    dof rx
    limits (-90.0 20.0)
  end
  begin
     id 11 
     name lowerback
     direction -0.0122332 0.997575 -0.0685192   
     length 1.98724   
     axis 0 0 0   XYZ
    dof rx ry rz
    limits (-20.0 45.0)
           (-30.0 30.0)
           (-30.0 30.0)
  end
  begin
     id 12 
     name upperback
     direction 0.0182347 0.999724 -0.0148421   
     length 1.99029   
     axis 0 0 0   XYZ
    dof rx ry rz
    limits (-20.0 45.0)
           (-30.0 30.0)
           (-30.0 30.0)
  end
  begin
     id 13 
     name thorax
     direction 0.0242908 0.99956 0.0170184   
     length 1.99573   
     axis 0 0 0   XYZ
    dof rx ry rz
    limits (-20.0 45.0)
           (-30.0 30.0)
           (-30.0 30.0)
  end
  begin
     id 14 
     name lowerneck
     direction 0.0654488 0.985533 0.156338   
     length 1.4285   
     axis 0 0 0   XYZ
    dof rx ry rz
    limits (-20.0 45.0)
           (-30.0 30.0)
           (-30.0 30.0)
  end
  begin
     id 15 
     name upperneck
     direction -0.02953 0.998556 -0.0448842   
     length 1.44709   
     axis 0 0 0   XYZ
    dof rx ry rz
    limits (-20.0 45.0)
           (-30.0 30.0)
           (-30.0 30.0)
  end
  begin
     id 16
     name head
     direction -0.0155588 0.999386 -0.0314063  
     length 1.44689  
     axis 0 0 0   XYZ
    dof rx ry rz
    limits (-20.0 45.0)
           (-30.0 30.0)
           (-30.0 30.0)
  end
  begin
     id 17 
     name lclavicle
     direction 0.968229 0.236071 -0.0824755  
     length 3.60593  
     axis 0 0 0   XYZ
    dof ry rz
    limits (-20.0 10.0)
           (0.0 20.0)
  end
  begin
     id 18 
     name lhumerus
     direction 1 -4.48968e-011 7.8138e-029   
     length 5.06035   
     axis 180 -30 -90   XYZ
    dof rx ry rz
    limits (-60.0 90.0)
           (-90.0 90.0)
           (-90.0 90.0)
  end
  begin
     id 19
     name lradius
     direction 1 -4.48967e-011 9.02887e-028   
     length 3.1478   
     axis 180 -30 -90   XYZ
    dof rx
    limits (-10.0 170.0)
  end
  begin
     id 20
     name lwrist
     direction 1 -4.48961e-011 7.20928e-028   
     length 1.5739   
     axis -5.52449e-016 90 90   XYZ
    dof ry
    limits (-180.0 0.0)
 end
  begin
     id 21 
     name lhand
     direction 1 -4.48972e-011 1.44186e-027   
     length 0.606747   
     axis -9.20027e-016 90 90   XYZ
    dof rx rz
    limits (-90.0 90.0)
           (-45.0 45.0)
  end
  begin
     id 22 
     name lfingers
     direction 1 -4.48943e-011 2.88371e-027   
     length 0.489175   
     axis -1.84005e-015 90 90   XYZ
    dof rx
    limits (0.0 90.0)
  end
  begin
     id 23
     name lthumb
     direction 0.707107 -6.34917e-011 0.707107   
     length 0.70236   
     axis -90 45 2.85299e-015   XYZ
    dof rx rz
    limits (-45.0 45.0)
           (-45.0 45.0)
  end
  begin
     id 24 
     name rclavicle
     direction -0.978165 0.207816 0.0022268   
     length 3.35425  
     axis 0 0 0   XYZ 
    dof ry rz
    limits (-10.0 20.0)
           (-20.0 0.0)
  end
  begin
     id 25 
     name rhumerus
     direction -1 -4.48964e-011 -4.02159e-027  
     length 5.12273   
     axis 180 30 90   XYZ
    dof rx ry rz
    limits (-90.0 60.0)
           (-90.0 90.0)
           (-90.0 90.0)
  end
  begin
     id 26 
     name rradius
     direction -1 -4.48966e-011 1.62746e-027   
     length 3.422   
     axis 180 30 90   XYZ
    dof rx
    limits (-10.0 170.0)
  end
  begin
     id 27 
     name rwrist
     direction -1 -4.4896e-011 7.20928e-028   
     length 1.711   
     axis -5.52449e-016 -90 -90   XYZ
    dof ry
    limits (-180.0 0.0)
  end
  begin
     id 28
     name rhand
     direction -1 -4.48979e-011 1.44186e-027   
     length 0.704599   
     axis -9.20027e-016 -90 -90   XYZ
    dof rx rz
    limits (-90.0 90.0)
           (-45.0 45.0)
  end
  begin
     id 29
     name rfingers
     direction -1 -4.48962e-011 2.88371e-027   
     length 0.568066   
     axis -1.84005e-015 -90 -90   XYZ
    dof rx
    limits (0.0 90.0)
  end
  begin
     id 30
     name rthumb
     direction -0.707107 -6.34949e-011 0.707107   
     length 0.815633   
     axis -90 -45 -2.85299e-015   XYZ
    dof rx rz
    limits (-45.0 45.0)
           (-45.0 45.0)
  end
:hierarchy
  begin
    root lhipjoint rhipjoint lowerback
    lhipjoint lfemur
    lfemur ltibia
    ltibia lfoot
    lfoot ltoes
    rhipjoint rfemur
    rfemur rtibia
    rtibia rfoot
    rfoot rtoes
    lowerback upperback
    upperback thorax
    thorax lowerneck lclavicle rclavicle
    lowerneck upperneck
    upperneck head
    lclavicle lhumerus
    lhumerus lradius
    lradius lwrist
    lwrist lhand lthumb
    lhand lfingers
    rclavicle rhumerus
    rhumerus rradius
    rradius rwrist
    rwrist rhand rthumb
    rhand rfingers
  end

#!OML:ASF E:\id_vita\Project 1\Capture day 1\Session 1\Male1.ASF
:FULLY-SPECIFIED
:DEGREES
376
root -26.4015 13.6393 -5.66394 85.5834 78.0022 37.9736
lowerback 28.5681 2.16854 -6.76515
upperback 7.01737 1.12454 -2.97424
thorax -7.89604 0.844878 0.149583
lowerneck -16.3779 -1.52322 3.39071
upperneck 16.7889 -3.07084 1.18014
head 7.86233 -1.08804 -0.510687
rclavicle -7.95139e-015 1.94809e-014
rhumerus 58.9215 1.45724 -62.6625
rradius 25.2794
rwrist 30.3525
rhand -43.1613 254.43
rfingers 7.12502
rthumb -16.0137 76.2119
lclavicle -7.95139e-015 1.94809e-014
lhumerus 68.5993 -11.8124 80.5743
lradius 12.2123
lwrist -49.5035
lhand -37.2566 82.1157
lfingers 7.12502
lthumb -10.3222 -111.842
rfemur -43.5607 -6.1676 2.97234
rtibia 74.9469
rfoot -6.98528 1.69235
rtoes -7.81713
lfemur -50.9784 -0.386489 -38.7455
ltibia 56.9383
lfoot -50.5618 7.16745
ltoes 25.6466
377
root -26.3372 13.6408 -5.67611 85.8268 77.8442 38.6151
lowerback 28.9391 2.14271 -6.88572
upperback 7.12103 1.04586 -2.99987
thorax -7.95336 0.816816 0.207967
lowerneck -16.5056 -1.48904 3.52761
upperneck 17.3416 -3.0397 1.03194
head 8.06478 -1.0627 -0.58362
rclavicle 3.57812e-014 4.39314e-014
rhumerus 59.1963 1.42544 -63.0044
rradius 24.7659
rwrist 30.7674
rhand -43.0729 254.788
rfingers 7.12502
rthumb -15.9285 75.8471
lclavicle 3.57812e-014 4.39314e-014
lhumerus 68.2059 -11.3355 82.0446
lradius 12.1163
lwrist -51.0565
lhand -37.5661 81.5711
lfingers 7.12502
lthumb -10.6207 -111.283
rfemur -44.0926 -6.53437 2.81392
rtibia 76.0658
rfoot -8.38383 -0.145016
rtoes -7.16029
lfemur -49.9477 -0.384739 -39.0042
ltibia 56.3336
lfoot -50.3875 7.50914
ltoes 27.0338
378
root -26.2745 13.6471 -5.67913 84.574 77.8303 37.5723
lowerback 29.0274 2.32711 -7.07086
upperback 7.27353 1.24019 -2.9766
thorax -7.83352 0.909042 0.272682
lowerneck -17.0418 -1.48355 3.83896
upperneck 17.9064 -3.11643 0.879442
head 8.3414 -1.07498 -0.704093
rclavicle 6.20208e-014 6.32135e-014
rhumerus 59.1955 1.30379 -62.3849
rradius 24.753
rwrist 30.2202
rhand -43.0682 257.616
rfingers 7.12502
rthumb -15.924 73.0186
lclavicle 6.20208e-014 6.32135e-014
lhumerus 68.1445 -11.1679 82.8564
lradius 12.0933
lwrist -52.0995
lhand -37.4535 81.8102
lfingers 7.12502
lthumb -10.5121 -111.527
rfemur -45.0229 -6.56101 2.9484
rtibia 77.1589
rfoot -10.0742 -0.56191
rtoes -6.60735
lfemur -49.1955 -0.108527 -39.0199
ltibia 55.7502
lfoot -50.3418 7.19317
ltoes 29.2194
379
root -26.2073 13.6584 -5.68813 84.8913 77.8335 38.3779
lowerback 29.5265 2.21946 -7.04023
upperback 7.4531 1.10616 -2.95748
thorax -7.86078 0.854466 0.31291
lowerneck -16.9128 -1.52396 3.60023
upperneck 18.1431 -3.13368 1.03041
head 8.40454 -1.07662 -0.616877
rclavicle 4.29375e-014 9.28324e-014
rhumerus 59.7112 1.24195 -63.412
rradius 24.1447
rwrist 31.2365
rhand -42.944 257.335
rfingers 7.12502
rthumb -15.8044 73.2904
lclavicle 4.29375e-014 9.28324e-014
lhumerus 68.0578 -10.5489 84.121
lradius 11.933
lwrist -53.6745
lhand -37.1858 82.2624
lfingers 7.12502
lthumb -10.2539 -111.992
rfemur -45.4838 -6.92335 3.01334
rtibia 78.1976
rfoot -11.6454 -1.14151
rtoes -5.65107
lfemur -48.0739 -0.1186 -39.128
ltibia 55.1217
lfoot -50.2289 7.02983
ltoes 30.3281
380
root -26.1408 13.6613 -5.69629 85.458 77.8247 39.3732
lowerback 29.9078 2.18847 -7.05318
upperback 7.62908 1.068 -2.9003
thorax -7.84012 0.842858 0.391083
lowerneck -17.3494 -1.51746 3.70667
upperneck 18.8996 -3.13191 0.792639
head 8.73322 -1.06947 -0.724577
rclavicle -7.95139e-015 -2.22639e-014
rhumerus 59.8488 1.07184 -63.6541
rradius 23.9365
rwrist 31.5306
rhand -42.8389 257.123
rfingers 7.12502
rthumb -15.7032 73.4945
lclavicle -7.95139e-015 -2.22639e-014
lhumerus 67.9466 -10.0253 85.97
lradius 11.6793
lwrist -55.569
lhand -37.1253 82.8443
lfingers 7.12502
lthumb -10.1955 -112.577
rfemur -46.0438 -7.19262 3.07807
rtibia 79.2437
rfoot -14.0798 -1.93734
rtoes -7.84022
lfemur -47.0321 -0.162593 -39.2845
ltibia 54.5007
lfoot -50.0824 7.46572
ltoes 29.9211
